<svg width="76" height="77" viewBox="0 0 76 77" fill="none" xmlns="http://www.w3.org/2000/svg">
<path d="M25.3333 25.6667L25.3333 22.2917C25.3333 15.2961 31.0044 9.62502 38 9.62502V9.62502C44.9956 9.62502 50.6666 15.2961 50.6666 22.2917L50.6666 25.6667" stroke="#222222" stroke-width="2" stroke-linecap="round"/>
<path fill-rule="evenodd" clip-rule="evenodd" d="M12.5858 22.5858C12 23.1716 12 24.1144 12 26V50C12 53.7712 12 55.6569 13.1716 56.8284C14.3431 58 16.2288 58 20 58H55C58.7712 58 60.6569 58 61.8284 56.8284C63 55.6569 63 53.7712 63 50V26C63 24.1144 63 23.1716 62.4142 22.5858C61.8284 22 60.8856 22 59 22H16C14.1144 22 13.1716 22 12.5858 22.5858ZM29.5 38.5C29.5 37.9477 29.0523 37.5 28.5 37.5C27.9477 37.5 27.5 37.9477 27.5 38.5V44.9166C27.5 45.4689 27.9477 45.9166 28.5 45.9166C29.0523 45.9166 29.5 45.4689 29.5 44.9166V38.5ZM48.5 38.5C48.5 37.9477 48.0523 37.5 47.5 37.5C46.9477 37.5 46.5 37.9477 46.5 38.5V44.9166C46.5 45.4689 46.9477 45.9166 47.5 45.9166C48.0523 45.9166 48.5 45.4689 48.5 44.9166V38.5Z" fill="#222222"/>
</svg>
