<svg width="100" height="100" viewBox="0 0 100 100" fill="none" xmlns="http://www.w3.org/2000/svg">
<rect width="100" height="100" rx="10" fill="#C73C61"/>
<rect width="100" height="100" rx="50" fill="#20C5A6"/>
<rect x="12" y="12" width="75" height="75" rx="37.5" fill="#7D4926"/>
<rect x="57" y="8" width="14" height="14" rx="7" fill="#C73C61"/>
<rect x="69" y="17" width="14" height="14" rx="7" fill="#C73C61"/>
<rect x="16" y="68" width="14" height="14" rx="7" fill="#C73C61"/>
<rect x="28" y="77" width="14" height="14" rx="7" fill="#C73C61"/>
<rect x="43" y="80" width="14" height="14" rx="7" fill="#C73C61"/>
<rect x="42" y="5" width="14" height="14" rx="7" fill="#C73C61"/>
<rect x="33" y="33" width="34" height="34" rx="17" fill="#C73C61"/>
<g filter="url(#filter0_d_198_95)">
<path d="M51.375 66.0625C51.375 65 51.5521 63.9062 51.9062 62.7812C53.6979 62.2812 55.375 62.0417 56.9375 62.0625C56.5417 58 56.2083 53.5625 55.9375 48.75C55.6667 43.9167 55.4792 39.4583 55.375 35.375H55.3438L50.875 34.7188C50.6042 33.9479 50.3958 33.0938 50.25 32.1562C50.1042 31.2188 50.0312 30.3125 50.0312 29.4375C50.0312 28.7708 50.0833 28.0417 50.1875 27.25C52.4167 26.2708 55.9167 25.5833 60.6875 25.1875C65.4583 24.7708 70.1979 24.5625 74.9062 24.5625C78.0729 24.5625 80.7604 24.8125 82.9688 25.3125C85.1771 25.8125 87.0208 26.9479 88.5 28.7188C90 30.4688 90.75 33.0938 90.75 36.5938C90.75 43.0729 89.1875 51.5729 86.0625 62.0938C85.5417 63.8229 84.9583 65.375 84.3125 66.75C83.6667 68.125 82.8438 69.3125 81.8438 70.3125C80.9896 71.2708 80.1042 72 79.1875 72.5C78.2917 72.9792 77.2083 73.2188 75.9375 73.2188C75.2917 73.2188 74.4167 73.1146 73.3125 72.9062C71.9375 72.6354 70.7188 72.2917 69.6562 71.875C68.5938 71.4375 67.7083 71 67 70.5625C66.3125 70.125 65.4896 69.5729 64.5312 68.9062C64.1146 69.5104 63.4167 70.1771 62.4375 70.9062C61.4792 71.6354 60.4167 72.2604 59.25 72.7812C58.0833 73.3021 57 73.5833 56 73.625C54.5625 73.0833 53.4271 72.125 52.5938 70.75C51.7812 69.3542 51.375 67.7917 51.375 66.0625ZM75.4375 61.8125C76.0208 58.9375 76.4792 55.6042 76.8125 51.8125C77.1458 48 77.4271 43.8854 77.6562 39.4688L77.7812 37.25C77.6562 37.0208 77.1458 36.7917 76.25 36.5625C75.375 36.3333 74.2188 36.2188 72.7812 36.2188L70.3438 36.1875C69.1771 36.1875 68.2396 36.2396 67.5312 36.3438C67.5312 37.2188 67.5417 37.9583 67.5625 38.5625C67.625 42.1875 67.6562 45.4271 67.6562 48.2812C67.6562 51.5938 67.625 56.3021 67.5625 62.4062C70.2917 62.4062 72.9167 62.2083 75.4375 61.8125Z" fill="#FFFF00"/>
</g>
<g filter="url(#filter1_d_198_95)">
<path d="M9.375 66.0625C9.375 65 9.55208 63.9062 9.90625 62.7812C11.6979 62.2812 13.375 62.0417 14.9375 62.0625C14.5417 58 14.2083 53.5625 13.9375 48.75C13.6667 43.9167 13.4792 39.4583 13.375 35.375H13.3438L8.875 34.7188C8.60417 33.9479 8.39583 33.0938 8.25 32.1562C8.10417 31.2188 8.03125 30.3125 8.03125 29.4375C8.03125 28.7708 8.08333 28.0417 8.1875 27.25C10.4167 26.2708 13.9167 25.5833 18.6875 25.1875C23.4583 24.7708 28.1979 24.5625 32.9062 24.5625C36.0729 24.5625 38.7604 24.8125 40.9688 25.3125C43.1771 25.8125 45.0208 26.9479 46.5 28.7188C48 30.4688 48.75 33.0938 48.75 36.5938C48.75 43.0729 47.1875 51.5729 44.0625 62.0938C43.5417 63.8229 42.9583 65.375 42.3125 66.75C41.6667 68.125 40.8438 69.3125 39.8438 70.3125C38.9896 71.2708 38.1042 72 37.1875 72.5C36.2917 72.9792 35.2083 73.2188 33.9375 73.2188C33.2917 73.2188 32.4167 73.1146 31.3125 72.9062C29.9375 72.6354 28.7188 72.2917 27.6562 71.875C26.5938 71.4375 25.7083 71 25 70.5625C24.3125 70.125 23.4896 69.5729 22.5312 68.9062C22.1146 69.5104 21.4167 70.1771 20.4375 70.9062C19.4792 71.6354 18.4167 72.2604 17.25 72.7812C16.0833 73.3021 15 73.5833 14 73.625C12.5625 73.0833 11.4271 72.125 10.5938 70.75C9.78125 69.3542 9.375 67.7917 9.375 66.0625ZM33.4375 61.8125C34.0208 58.9375 34.4792 55.6042 34.8125 51.8125C35.1458 48 35.4271 43.8854 35.6562 39.4688L35.7812 37.25C35.6562 37.0208 35.1458 36.7917 34.25 36.5625C33.375 36.3333 32.2188 36.2188 30.7812 36.2188L28.3438 36.1875C27.1771 36.1875 26.2396 36.2396 25.5312 36.3438C25.5312 37.2188 25.5417 37.9583 25.5625 38.5625C25.625 42.1875 25.6562 45.4271 25.6562 48.2812C25.6562 51.5938 25.625 56.3021 25.5625 62.4062C28.2917 62.4062 30.9167 62.2083 33.4375 61.8125Z" fill="#FFFF00"/>
</g>
<defs>
<filter id="filter0_d_198_95" x="50.0312" y="24.5625" width="40.7188" height="53.0625" filterUnits="userSpaceOnUse" color-interpolation-filters="sRGB">
<feFlood flood-opacity="0" result="BackgroundImageFix"/>
<feColorMatrix in="SourceAlpha" type="matrix" values="0 0 0 0 0 0 0 0 0 0 0 0 0 0 0 0 0 0 127 0" result="hardAlpha"/>
<feOffset dy="4"/>
<feComposite in2="hardAlpha" operator="out"/>
<feColorMatrix type="matrix" values="0 0 0 0 0 0 0 0 0 0 0 0 0 0 0 0 0 0 0.5 0"/>
<feBlend mode="normal" in2="BackgroundImageFix" result="effect1_dropShadow_198_95"/>
<feBlend mode="normal" in="SourceGraphic" in2="effect1_dropShadow_198_95" result="shape"/>
</filter>
<filter id="filter1_d_198_95" x="8.03125" y="24.5625" width="40.7188" height="53.0625" filterUnits="userSpaceOnUse" color-interpolation-filters="sRGB">
<feFlood flood-opacity="0" result="BackgroundImageFix"/>
<feColorMatrix in="SourceAlpha" type="matrix" values="0 0 0 0 0 0 0 0 0 0 0 0 0 0 0 0 0 0 127 0" result="hardAlpha"/>
<feOffset dy="4"/>
<feComposite in2="hardAlpha" operator="out"/>
<feColorMatrix type="matrix" values="0 0 0 0 0 0 0 0 0 0 0 0 0 0 0 0 0 0 0.5 0"/>
<feBlend mode="normal" in2="BackgroundImageFix" result="effect1_dropShadow_198_95"/>
<feBlend mode="normal" in="SourceGraphic" in2="effect1_dropShadow_198_95" result="shape"/>
</filter>
</defs>
</svg>
