<svg width="1186" height="166" viewBox="0 0 1186 166" fill="none" xmlns="http://www.w3.org/2000/svg">
<rect y="17" width="1186" height="137" fill="#5C3317"/>
<rect x="15" width="1154" height="17" fill="white"/>
<path d="M290.125 85.75C290.125 73.1667 290.312 63.5 290.688 56.75H290.625L281.688 55.4375C281.146 53.8958 280.729 52.1875 280.438 50.3125C280.146 48.4375 280 46.625 280 44.875C280 43.5417 280.104 42.0833 280.312 40.5C285.438 38.6667 292.5 37.3125 301.5 36.4375C310.5 35.5625 319.167 35.125 327.5 35.125C333.875 35.125 339.354 35.625 343.938 36.625C348.521 37.625 352.354 39.8958 355.438 43.4375C358.562 46.9375 360.125 52.1875 360.125 59.1875C360.125 62.6875 359.375 66.7708 357.875 71.4375C356.417 76.0625 354.542 80.5833 352.25 85C350 89.375 347.729 92.9167 345.438 95.625C342.062 99.6667 338.312 102.042 334.188 102.75C327.354 103.833 320.125 104.375 312.5 104.375C312.333 108.667 312.271 111.75 312.312 113.625L321.625 113C323.542 116.125 324.604 119.833 324.812 124.125C324.812 124.333 323.875 125.229 322 126.812C320.125 128.396 317.646 129.854 314.562 131.188C311.521 132.521 308.021 133.188 304.062 133.188C300.146 133.188 297.021 132.125 294.688 130C292.396 127.833 291.25 124.104 291.25 118.812C290.542 110.146 290.188 99.1458 290.188 85.8125L290.125 85.75ZM329.688 86.8125C330.771 82.2292 331.667 77.375 332.375 72.25C333.125 67.0833 333.542 62.5833 333.625 58.75C333.417 58.375 332.354 58.0417 330.438 57.75C328.521 57.4583 326.042 57.3125 323 57.3125C320.875 57.3125 318.229 57.3958 315.062 57.5625C314.688 70.1458 314.188 80.25 313.562 87.875L329.688 86.8125ZM364.062 78.125C363.354 75.0833 362.896 72.8542 362.688 71.4375C362.479 70.0208 362.375 67.875 362.375 65C364.833 62.6667 367.479 60.9167 370.312 59.75C373.146 58.5417 376.333 57.9375 379.875 57.9375C390.625 57.9375 396 63.3333 396 74.125C396 77 395.729 80.3333 395.188 84.125C394.688 87.9167 393.958 92.6875 393 98.4375C392.875 99.1875 392.542 101.208 392 104.5C391.458 107.792 391.083 110.542 390.875 112.75C391.583 113.5 392.458 114.021 393.5 114.312C394 114.312 395.146 113.292 396.938 111.25C398.771 109.167 400.729 106.646 402.812 103.688C404.896 100.729 406.604 98 407.938 95.5C408.271 89.5417 408.729 84.0625 409.312 79.0625L402.75 77.75C402.208 75.6667 401.833 73.8333 401.625 72.25C401.417 70.6667 401.312 68.9792 401.312 67.1875L401.375 65.4375C402.875 63.5208 405.125 61.7917 408.125 60.25C411.125 58.7083 414.562 57.9375 418.438 57.9375C429.188 57.9375 434.562 63.3333 434.562 74.125C434.562 78.5 433.833 84.2708 432.375 91.4375C430.917 98.5625 429.208 105.771 427.25 113.062L434.438 109.938C435.646 111.229 436.708 112.812 437.625 114.688C438.583 116.521 439.188 118.646 439.438 121.062C438.854 122.312 437.583 123.917 435.625 125.875C433.667 127.792 431.271 129.5 428.438 131C425.604 132.5 422.646 133.25 419.562 133.25C416.104 133.25 413.438 132.229 411.562 130.188C409.729 128.104 408.812 125.458 408.812 122.25C408.812 121.417 409.021 119.708 409.438 117.125C409.896 114.542 410.271 112.75 410.562 111.75L408.812 111.188C406.729 118.479 403.854 123.979 400.188 127.688C396.562 131.396 392.417 133.25 387.75 133.25C381.042 133.25 376.312 131.042 373.562 126.625C370.812 122.167 369.438 116.646 369.438 110.062C369.438 97.6875 369.854 87.3542 370.688 79.0625L364.062 78.125ZM449.75 97.5C449.75 90.7083 449.854 84.5208 450.062 78.9375L443.25 77.75C442.708 75.6667 442.333 73.8333 442.125 72.25C441.917 70.6667 441.812 68.9792 441.812 67.1875L441.938 65.9375C442.062 65.3542 442.125 64.875 442.125 64.5L451.188 62.5C451.396 59.9167 451.875 57 452.625 53.75C453.375 50.5 454.167 48.1042 455 46.5625C456.333 45.5625 457.938 44.8125 459.812 44.3125C461.688 43.8125 463.708 43.5625 465.875 43.5625C467.708 43.5625 469.479 43.75 471.188 44.125C472.938 44.4583 474.458 44.9167 475.75 45.5C475.875 46.9167 475.938 48.5417 475.938 50.375C475.938 53.375 475.792 56.7708 475.5 60.5625L486.5 58.5625C488.042 61.2292 488.812 64.125 488.812 67.25C488.812 69.4167 488.542 71.375 488 73.125C487.5 74.875 486.792 76.8542 485.875 79.0625C483.125 79.5208 479.354 79.8125 474.562 79.9375C473.979 86.7292 472.688 96.7083 470.688 109.875L470.375 112L470.5 112.125L485.188 107.562C488.229 110.104 490.083 114.021 490.75 119.312C490.75 119.604 489.396 120.979 486.688 123.438C484.021 125.854 480.667 128.104 476.625 130.188C472.583 132.229 468.188 133.25 463.438 133.25C455.146 133.25 450.729 128.188 450.188 118.062C449.896 112.938 449.75 106.083 449.75 97.5ZM526.125 42.3125C526.125 38.6458 527.312 35.6667 529.688 33.375C532.104 31.0833 535.938 29.9375 541.188 29.9375C546.438 29.9375 550.25 31.0833 552.625 33.375C555.042 35.6667 556.25 38.6458 556.25 42.3125C556.25 44.3958 555.521 46.3125 554.062 48.0625C552.646 49.8125 550.771 51.2083 548.438 52.25C546.104 53.25 543.688 53.75 541.188 53.75C538.479 53.75 535.958 53.1667 533.625 52C531.333 50.7917 529.5 49.2917 528.125 47.5C526.792 45.7083 526.125 43.9792 526.125 42.3125ZM523.062 78.0625C522.521 76.0208 522.146 74.1667 521.938 72.5C521.729 70.7917 521.625 69.0208 521.625 67.1875L521.688 65.4375C522.562 64.3125 523.917 63.1875 525.75 62.0625C527.625 60.8958 529.792 59.9167 532.25 59.125C534.75 58.3333 537.333 57.9375 540 57.9375C545.833 57.9375 549.979 59.25 552.438 61.875C554.896 64.5 556.125 68.5833 556.125 74.125C556.125 77.4583 555.646 81.8125 554.688 87.1875C553.771 92.5625 552.646 97.7917 551.312 102.875C550.021 107.917 548.896 111.521 547.938 113.688L548.062 113.812L557.312 110.438C558.979 111.854 560.229 113.417 561.062 115.125C561.938 116.833 562.5 118.812 562.75 121.062C562.75 121.354 561.833 122.562 560 124.688C558.167 126.771 555.729 128.729 552.688 130.562C549.688 132.354 546.208 133.25 542.25 133.25C538.25 133.25 535 132.167 532.5 130C530.042 127.833 528.812 124.125 528.812 118.875C528.812 112.75 528.979 106.25 529.312 99.375C529.646 92.5 530.167 85.8333 530.875 79.375L523.062 78.0625ZM574 110.25C574 103.458 574.083 98.3333 574.25 94.875C574.417 91.375 574.854 86.25 575.562 79.5L568.312 78.5625C567.438 75.8542 566.854 73.4375 566.562 71.3125C566.312 69.1875 566.188 66.4375 566.188 63.0625C566.854 62.4792 567.958 61.7917 569.5 61C571.083 60.1667 572.958 59.4583 575.125 58.875C577.292 58.25 579.479 57.9375 581.688 57.9375C586.729 57.9375 590.292 59.0208 592.375 61.1875C594.5 63.3542 595.562 66.6042 595.562 70.9375C595.562 73.3542 595.208 76.625 594.5 80.75C593.333 87.375 592.75 90.8542 592.75 91.1875C592.75 91.3958 592.896 91.6042 593.188 91.8125C593.479 91.9792 593.792 92.0625 594.125 92.0625C594.5 92.0625 594.75 91.9167 594.875 91.625C596.542 85 598.208 79.4583 599.875 75C601.542 70.5417 604.062 66.5833 607.438 63.125C610.812 59.6667 615.188 57.9375 620.562 57.9375C627.229 57.9375 632.021 59.9792 634.938 64.0625C637.854 68.1042 639.312 73.2083 639.312 79.375C639.312 84.875 638.667 90.1875 637.375 95.3125C636.083 100.396 634.479 105.708 632.562 111.25C632.646 111.042 632.354 111.854 631.688 113.688L631.812 113.812L640.938 110.062C644.188 112.854 646.083 116.562 646.625 121.188C646.625 121.479 645.688 122.667 643.812 124.75C641.979 126.833 639.542 128.771 636.5 130.562C633.458 132.354 629.958 133.25 626 133.25C622.042 133.25 618.812 132.188 616.312 130.062C613.812 127.938 612.562 124.312 612.562 119.188C612.562 115.104 612.729 109.646 613.062 102.812C613.396 95.9792 613.729 90.4792 614.062 86.3125C612.979 85.1458 611.646 84.5208 610.062 84.4375C608.604 86.3125 606.458 90.0625 603.625 95.6875C600.792 101.312 598.792 105.521 597.625 108.312C597.542 108.896 597.5 109.458 597.5 110C597.5 112.083 597.812 114.896 598.438 118.438C599.062 121.938 599.833 125.208 600.75 128.25C600 129.667 598.458 130.854 596.125 131.812C593.792 132.771 590.917 133.25 587.5 133.25C584.417 133.25 581.938 133 580.062 132.5C578.229 132 576.938 131.479 576.188 130.938C575.438 130.354 575.062 130 575.062 129.875C575.021 129.5 574.917 128.521 574.75 126.938C574.583 125.312 574.417 123.062 574.25 120.188C574.083 117.271 574 113.958 574 110.25ZM685.562 110.25C685.562 103.458 685.646 98.3333 685.812 94.875C685.979 91.375 686.417 86.25 687.125 79.5L679.938 78.5625C679.062 75.8542 678.479 73.4375 678.188 71.3125C677.938 69.1875 677.812 66.4375 677.812 63.0625C678.479 62.4792 679.583 61.7917 681.125 61C682.708 60.1667 684.562 59.4583 686.688 58.875C688.854 58.25 691.042 57.9375 693.25 57.9375C698.292 57.9375 701.854 59.0208 703.938 61.1875C706.062 63.3542 707.125 66.6042 707.125 70.9375C707.125 73.3542 706.771 76.625 706.062 80.75C704.896 87.375 704.312 90.8542 704.312 91.1875C704.312 91.3958 704.458 91.6042 704.75 91.8125C705.042 91.9792 705.354 92.0625 705.688 92.0625C706.062 92.0625 706.312 91.9167 706.438 91.625C706.396 91.7917 706.875 89.6875 707.875 85.3125C709.083 79.5625 710.312 74.875 711.562 71.25C712.854 67.625 714.896 64.5208 717.688 61.9375C720.479 59.3542 724.271 58.0625 729.062 58.0625C734.979 58.0625 739.25 59.7708 741.875 63.1875C744.5 66.5625 745.812 71.0625 745.812 76.6875C745.812 81.1458 745.062 86.1042 743.562 91.5625C743.562 91.7708 743.708 91.9792 744 92.1875C744.292 92.3542 744.604 92.4375 744.938 92.4375C745.312 92.4375 745.562 92.2917 745.688 92L746.562 88.5C748.062 82.3333 749.542 77.2083 751 73.125C752.5 69.0417 754.729 65.5208 757.688 62.5625C760.688 59.5625 764.583 58.0625 769.375 58.0625C775.667 58.0625 780.188 60.0833 782.938 64.125C785.729 68.1667 787.125 73.25 787.125 79.375C787.125 83.7083 786.708 88.0625 785.875 92.4375C785.083 96.8125 784.229 100.479 783.312 103.438C782.438 106.396 781.354 109.812 780.062 113.688L780.188 113.812L789.438 109.938C792.688 112.729 794.583 116.438 795.125 121.062C795.125 121.354 794.188 122.562 792.312 124.688C790.438 126.771 787.958 128.729 784.875 130.562C781.833 132.354 778.333 133.25 774.375 133.25C770.417 133.25 767.188 132.188 764.688 130.062C762.188 127.938 760.938 124.312 760.938 119.188C760.938 113.479 761.042 107.625 761.25 101.625C761.5 95.5833 761.854 90.1667 762.312 85.375C761.604 84.7917 760.625 84.4792 759.375 84.4375C758.125 85.6458 756.562 88.2917 754.688 92.375C752.812 96.4167 751.083 100.75 749.5 105.375C747.917 109.958 746.917 113.542 746.5 116.125C747.083 120.208 747.979 124.25 749.188 128.25C748.438 129.667 746.896 130.854 744.562 131.812C742.229 132.771 739.354 133.25 735.938 133.25C732.854 133.25 730.438 133 728.688 132.5C726.938 132 725.729 131.479 725.062 130.938C724.438 130.396 724.125 130.042 724.125 129.875C724.083 129.5 723.979 128.521 723.812 126.938C723.646 125.312 723.479 123.062 723.312 120.188C723.146 117.271 723.062 113.958 723.062 110.25C723.062 106.708 723.333 102.271 723.875 96.9375C723.917 96.2708 724.042 94.6875 724.25 92.1875C724.458 89.6875 724.562 87.4167 724.562 85.375C723.854 84.7917 722.875 84.4792 721.625 84.4375C720.917 84.9792 718.938 88.4375 715.688 94.8125C712.438 101.188 710.271 105.688 709.188 108.312C709.104 108.896 709.062 109.458 709.062 110C709.062 112.083 709.375 114.896 710 118.438C710.625 121.938 711.396 125.208 712.312 128.25C711.562 129.667 710.021 130.854 707.688 131.812C705.354 132.771 702.479 133.25 699.062 133.25C695.979 133.25 693.5 133 691.625 132.5C689.792 132 688.5 131.479 687.75 130.938C687 130.354 686.625 130 686.625 129.875C686.583 129.5 686.479 128.521 686.312 126.938C686.146 125.312 685.979 123.062 685.812 120.188C685.646 117.271 685.562 113.958 685.562 110.25ZM799.125 95.6875C799.125 88.4792 800.333 82.0417 802.75 76.375C805.167 70.7083 808.896 66.2292 813.938 62.9375C819.021 59.6042 825.354 57.9375 832.938 57.9375C836.896 57.9375 840.854 58.4167 844.812 59.375C848.771 60.2917 852.125 61.8333 854.875 64C857.417 66.0417 859.25 68.75 860.375 72.125C861.542 75.4583 862.125 79.1667 862.125 83.25C862.125 85.9583 861.896 88.7292 861.438 91.5625C860.938 92.3958 859.958 93.5 858.5 94.875C857.042 96.2083 855.333 97.5208 853.375 98.8125C851.417 100.104 849.521 101.104 847.688 101.812C845.938 101.938 844.125 102 842.25 102C838.958 102 835.625 101.854 832.25 101.562C828.875 101.271 825.917 100.938 823.375 100.562C823.708 104.104 824.792 107.188 826.625 109.812C828.458 112.438 831.375 113.75 835.375 113.75C835.75 113.75 836.354 113.708 837.188 113.625C839.729 113.375 842.688 112.708 846.062 111.625C849.479 110.5 852.875 109.208 856.25 107.75C857.833 109.333 859 110.917 859.75 112.5C860.5 114.083 861.021 116.354 861.312 119.312C860.021 120.812 857.917 122.646 855 124.812C852.125 126.979 848.604 128.938 844.438 130.688C840.271 132.396 835.917 133.25 831.375 133.25C824.542 133.25 818.688 131.604 813.812 128.312C808.979 124.979 805.312 120.479 802.812 114.812C800.354 109.104 799.125 102.729 799.125 95.6875ZM839.375 81.3125C838.792 80.6875 837.812 80.2083 836.438 79.875C835.062 79.5 833.625 79.3125 832.125 79.3125C830.917 79.3125 829.688 79.4167 828.438 79.625C827.229 79.8333 826.5 80.0625 826.25 80.3125C824.833 83.1042 823.938 86.2708 823.562 89.8125L840.25 88.1875L839.375 81.3125ZM872.25 36.375C874.417 34.875 877.562 33.5417 881.688 32.375C885.812 31.1667 889.729 30.5625 893.438 30.5625C896.562 30.5625 899.104 31.0417 901.062 32C901.062 38.7083 900.667 47.125 899.875 57.25C899.083 67.3333 897.979 79.625 896.562 94.125C895.688 95.625 894.312 96.8333 892.438 97.75C890.604 98.625 888.646 99.0625 886.562 99.0625C884.979 99.0625 883.458 98.7917 882 98.25C880.542 97.7083 879.271 96.8958 878.188 95.8125L872.25 36.375ZM887.5 106.938C893 106.938 897 108.146 899.5 110.562C902.042 112.938 903.312 115.938 903.312 119.562C903.312 121.979 902.542 124.25 901 126.375C899.5 128.458 897.521 130.125 895.062 131.375C892.646 132.625 890.125 133.25 887.5 133.25C884.875 133.25 882.333 132.625 879.875 131.375C877.458 130.125 875.479 128.458 873.938 126.375C872.438 124.25 871.688 121.979 871.688 119.562C871.688 115.938 872.938 112.938 875.438 110.562C877.979 108.146 882 106.938 887.5 106.938Z" fill="white"/>
</svg>
